<svg xmlns="http://www.w3.org/2000/svg" width="88.369" height="88.369" viewBox="0 0 88.369 88.369">
  <g id="Group_12" data-name="Group 12" transform="translate(-274.756 -274.511)">
    <circle id="Ellipse_2" data-name="Ellipse 2" cx="44.184" cy="44.184" r="44.184" transform="translate(274.756 274.511)" fill="#fff"/>
    <g id="Group_7" data-name="Group 7" transform="translate(299.725 293.583)" opacity="0.49">
      <path id="Path_18" data-name="Path 18" d="M451.579,404.283a14.267,14.267,0,0,1,2.769,8.92,13.181,13.181,0,0,1-5.824,11.528q-5.827,4.032-16.985,4.032H402.048V371.737h27.861q10.428,0,16.008,3.992a12.636,12.636,0,0,1,5.581,10.835,13.707,13.707,0,0,1-7.577,12.545A15.035,15.035,0,0,1,451.579,404.283Zm-36.414-22.607v13.442H428.28q4.889,0,7.414-1.711a5.709,5.709,0,0,0,2.525-5.051,5.609,5.609,0,0,0-2.525-5.01q-2.525-1.668-7.414-1.671Zm23.258,35.439a5.859,5.859,0,0,0,2.647-5.3q0-7.088-10.508-7.088h-15.4v14.094h15.4Q435.774,418.824,438.423,417.114Z" transform="translate(-402.048 -371.737)" fill="#8c8c92"/>
    </g>
    <g id="Group_8" data-name="Group 8" transform="translate(297.361 291.219)" opacity="0.49">
      <path id="Path_19" data-name="Path 19" d="M439.526,392.23a14.267,14.267,0,0,1,2.769,8.92,13.181,13.181,0,0,1-5.824,11.528q-5.827,4.032-16.985,4.032H390V359.684h27.861q10.428,0,16.008,3.992a12.636,12.636,0,0,1,5.581,10.835,13.707,13.707,0,0,1-7.577,12.545A15.034,15.034,0,0,1,439.526,392.23Zm-36.414-22.607v13.442h13.115q4.889,0,7.414-1.711a5.709,5.709,0,0,0,2.525-5.051,5.609,5.609,0,0,0-2.525-5.01q-2.525-1.668-7.414-1.671Zm23.258,35.439a5.859,5.859,0,0,0,2.647-5.3q0-7.088-10.508-7.088h-15.4v14.094h15.4Q423.721,406.771,426.37,405.061Z" transform="translate(-389.995 -359.684)" fill="#5d5b67"/>
    </g>
    <g id="Group_9" data-name="Group 9" transform="translate(294.084 287.941)" opacity="0.49">
      <path id="Path_20" data-name="Path 20" d="M422.818,375.522a14.265,14.265,0,0,1,2.769,8.919,13.181,13.181,0,0,1-5.824,11.528Q413.937,400,402.778,400H373.287V342.976h27.861q10.428,0,16.008,3.992a12.637,12.637,0,0,1,5.581,10.835,13.707,13.707,0,0,1-7.577,12.546A15.035,15.035,0,0,1,422.818,375.522ZM386.4,352.914v13.442h13.115q4.889,0,7.414-1.711a5.708,5.708,0,0,0,2.525-5.051,5.609,5.609,0,0,0-2.525-5.01q-2.525-1.669-7.414-1.671Zm23.258,35.438a5.86,5.86,0,0,0,2.647-5.3q0-7.088-10.508-7.088H386.4v14.094h15.4Q407.013,390.063,409.662,388.353Z" transform="translate(-373.287 -342.976)" fill="#403f48"/>
    </g>
    <g id="Group_10" data-name="Group 10" transform="translate(290.806 284.664)" opacity="0.49">
      <path id="Path_21" data-name="Path 21" d="M406.111,358.815a14.267,14.267,0,0,1,2.769,8.92,13.181,13.181,0,0,1-5.824,11.528q-5.827,4.032-16.985,4.032H356.58V326.269h27.862q10.428,0,16.008,3.992A12.637,12.637,0,0,1,406.03,341.1a13.707,13.707,0,0,1-7.577,12.545A15.035,15.035,0,0,1,406.111,358.815ZM369.7,336.207v13.442h13.115q4.889,0,7.414-1.711a5.709,5.709,0,0,0,2.525-5.051,5.609,5.609,0,0,0-2.525-5.01q-2.526-1.668-7.414-1.671Zm23.258,35.439a5.859,5.859,0,0,0,2.647-5.3q0-7.088-10.508-7.088H369.7v14.094h15.4Q390.306,373.356,392.955,371.646Z" transform="translate(-356.58 -326.269)" fill="#343338"/>
    </g>
    <g id="Group_11" data-name="Group 11" transform="translate(287.529 281.387)">
      <path id="Path_22" data-name="Path 22" d="M389.4,342.107a14.266,14.266,0,0,1,2.769,8.919,13.181,13.181,0,0,1-5.824,11.528q-5.827,4.032-16.985,4.032H339.872V309.561h27.861q10.428,0,16.008,3.992a12.637,12.637,0,0,1,5.581,10.835,13.707,13.707,0,0,1-7.577,12.546A15.035,15.035,0,0,1,389.4,342.107ZM352.989,319.5v13.442H366.1q4.889,0,7.414-1.711a5.709,5.709,0,0,0,2.525-5.051,5.609,5.609,0,0,0-2.525-5.01q-2.525-1.669-7.414-1.671Zm23.258,35.438a5.86,5.86,0,0,0,2.647-5.3q0-7.088-10.508-7.088h-15.4v14.094h15.4Q373.6,356.648,376.247,354.938Z" transform="translate(-339.872 -309.561)" fill="#1e1d20"/>
    </g>
  </g>
</svg>
